HIERARCHY
ROOT SpineBase
{
  OFFSET 0.000000 0.000000 0.000000
  CHANNELS 6 Xposition Yposition Zposition Zrotation Xrotation Yrotation
  JOINT SpineMid
  {
    OFFSET 0.000000 30.931253 0.000000
    CHANNELS 3 Zrotation Xrotation Yrotation
    JOINT SpineShoulder
    {
      OFFSET -0.030673 22.947434 -0.742089
      CHANNELS 3 Zrotation Xrotation Yrotation
      JOINT Neck
      {
        OFFSET 0.046917 7.600182 -0.575963
        CHANNELS 3 Zrotation Xrotation Yrotation
        JOINT Head
        {
          OFFSET 3.605461 9.028454 4.808386
          CHANNELS 3 Zrotation Xrotation Yrotation
          End Site
          {
            OFFSET 0 0 0
          }
        }
      }
      JOINT ShoulderLeft
      {
        OFFSET -2.166363 -4.377400 -13.184833
        CHANNELS 3 Zrotation Xrotation Yrotation
        JOINT ElbowLeft
        {
          OFFSET 5.362957 -24.336663 -5.498032
          CHANNELS 3 Zrotation Xrotation Yrotation
          JOINT WristLeft
          {
            OFFSET 7.151591 -20.516431 5.153179
            CHANNELS 3 Zrotation Xrotation Yrotation
            JOINT HandLeft
            {
              OFFSET -0.280662 -4.654735 4.091725
              CHANNELS 3 Zrotation Xrotation Yrotation
              JOINT HandTipLeft
              {
                OFFSET 4.438615 -7.821629 2.576352
                CHANNELS 3 Zrotation Xrotation Yrotation
                End Site
                {
                  OFFSET 0 0 0
                }
              }
              JOINT ThumbLeft
              {
                OFFSET -4.088749 -1.014299 -0.405489
                CHANNELS 3 Zrotation Xrotation Yrotation
                End Site
                {
                  OFFSET 0 0 0
                }
              }
            }
          }
        }
      }
      JOINT ShoulderRight
      {
        OFFSET 12.146546 -3.825198 8.968413
        CHANNELS 3 Zrotation Xrotation Yrotation
        JOINT ElbowRight
        {
          OFFSET 10.919539 -26.770953 -5.135807
          CHANNELS 3 Zrotation Xrotation Yrotation
          JOINT WristRight
          {
            OFFSET -5.798269 -26.055761 -3.533421
            CHANNELS 3 Zrotation Xrotation Yrotation
            JOINT HandRight
            {
              OFFSET 0.019447 -5.800944 -2.263691
              CHANNELS 3 Zrotation Xrotation Yrotation
              JOINT HandTipRight
              {
                OFFSET -1.302478 -6.557358 0.174868
                CHANNELS 3 Zrotation Xrotation Yrotation
                End Site
                {
                  OFFSET 0 0 0
                }
              }
              JOINT ThumbRight
              {
                OFFSET 1.781025 -0.550355 -0.694495
                CHANNELS 3 Zrotation Xrotation Yrotation
                End Site
                {
                  OFFSET 0 0 0
                }
              }
            }
          }
        }
      }
    }
  }
  JOINT HipLeft
  {
    OFFSET -4.124595 0.787373 -7.390421
    CHANNELS 3 Zrotation Xrotation Yrotation
    JOINT KneeLeft
    {
      OFFSET -3.121544 -35.517382 3.229561
      CHANNELS 3 Zrotation Xrotation Yrotation
      JOINT AnkleLeft
      {
        OFFSET -6.104527 -33.963377 2.738646
        CHANNELS 3 Zrotation Xrotation Yrotation
        JOINT FootLeft
        {
          OFFSET 3.387980 -7.103309 -2.243238
          CHANNELS 3 Zrotation Xrotation Yrotation
          End Site
          {
            OFFSET 0 0 0
          }
        }
      }
    }
  }
  JOINT HipRight
  {
    OFFSET 3.403899 1.024343 0.635074
    CHANNELS 3 Zrotation Xrotation Yrotation
    JOINT KneeRight
    {
      OFFSET -7.920871 -36.969580 -5.510111
      CHANNELS 3 Zrotation Xrotation Yrotation
      JOINT AnkleRight
      {
        OFFSET -7.296153 -33.536038 3.559049
        CHANNELS 3 Zrotation Xrotation Yrotation
        JOINT FootRight
        {
          OFFSET 11.529030 -2.833830 -11.290187
          CHANNELS 3 Zrotation Xrotation Yrotation
          End Site
          {
            OFFSET 0 0 0
          }
        }
      }
    }
  }
}
MOTION
Frames: 14
Frame Time: 0.033333
41.776890 76.536762 361.459259 -0.000000 0.000000 -46.830165 -0.000000 0.000000 46.830165 -0.000000 0.000000 0.000000 -0.000000 0.000000 0.000000 0.000000 0.000000 0.000000 -0.000000 0.000000 0.000000 -0.000000 0.000000 0.000000 -0.000000 0.000000 0.000000 -0.000000 0.000000 0.000000 0.000000 0.000000 0.000000 0.000000 0.000000 0.000000 -0.000000 0.000000 0.000000 -0.000000 0.000000 0.000000 -0.000000 0.000000 0.000000 -0.000000 0.000000 0.000000 0.000000 0.000000 0.000000 0.000000 0.000000 0.000000 -0.000000 0.000000 46.830165 -0.000000 0.000000 0.000000 -0.000000 0.000000 0.000000 0.000000 0.000000 0.000000 -0.000000 0.000000 46.830165 -0.000000 0.000000 0.000000 -0.000000 0.000000 0.000000 0.000000 0.000000 0.000000
42.359363 76.514493 361.744012 0.627080 -0.223321 -49.954347 -0.574422 -0.336367 49.953883 -0.000000 0.000000 0.000000 -0.000000 0.000000 0.000000 0.000000 0.000000 0.000000 -0.000000 0.000000 0.000000 -0.000000 0.000000 0.000000 0.189563 1.228582 0.091391 1.329736 -0.539699 0.815819 0.000000 0.000000 0.000000 0.000000 0.000000 0.000000 -0.000000 0.000000 0.000000 -0.000000 0.000000 0.000000 -0.000000 0.000000 0.000000 2.107669 1.055963 -0.173640 0.000000 0.000000 0.000000 0.000000 0.000000 0.000000 -1.229515 -1.314653 49.849375 1.170124 0.130010 0.093742 3.065342 3.345549 0.526743 0.000000 0.000000 0.000000 1.150556 -6.920144 51.840903 8.284283 12.635280 -3.844905 -10.867786 -14.057409 2.626859 0.000000 0.000000 0.000000
42.809658 76.555139 361.968461 1.083750 -0.390270 -52.521725 -0.969137 -0.622589 52.520151 -0.000000 0.000000 0.000000 -0.000000 0.000000 0.000000 0.000000 0.000000 0.000000 -0.000000 0.000000 0.000000 -1.042474 0.053174 -0.243630 1.514800 2.183398 0.529615 2.167636 -1.065682 1.298868 0.000000 0.000000 0.000000 0.000000 0.000000 0.000000 -0.000000 0.000000 0.000000 -0.000000 0.000000 0.000000 -1.374522 0.109133 0.537896 5.147043 1.799150 -0.881218 0.000000 0.000000 0.000000 0.000000 0.000000 0.000000 -2.011755 -2.372947 52.330148 2.022482 0.244073 0.158439 5.269639 5.712019 0.769223 0.000000 0.000000 0.000000 2.876468 -12.296533 56.172414 16.342666 22.565818 -8.562691 -26.595765 -30.935507 1.286619 0.000000 0.000000 0.000000
43.127775 76.658699 362.132607 1.370468 -0.501052 -54.541826 -0.325736 -0.284256 54.577829 0.066866 0.147385 0.046884 -0.636336 -0.585512 0.057731 0.000000 0.000000 0.000000 -1.016389 0.254586 -0.076349 -1.377336 0.067584 -0.322996 2.232614 2.946745 0.902021 2.531464 -1.584619 1.433922 0.000000 0.000000 0.000000 0.000000 0.000000 0.000000 -1.016389 0.254586 -0.076349 0.365556 0.899054 -0.252425 -2.379293 -0.965978 1.001261 7.022004 2.676343 -1.318004 0.000000 0.000000 0.000000 0.000000 0.000000 0.000000 -2.431222 -3.122923 54.291730 2.581865 0.343046 0.197371 6.649397 7.105174 0.838017 0.000000 0.000000 0.000000 4.720697 -16.141767 59.729251 23.702506 29.681603 -13.458096 -53.137451 -48.071135 -10.555601 0.000000 0.000000 0.000000
43.313714 76.825175 362.236450 1.486769 -0.555583 -56.028347 -0.281326 -0.268504 56.070817 0.094044 0.151938 0.055829 -0.774813 -0.650668 0.073451 0.000000 0.000000 0.000000 -1.200301 0.322246 -0.089593 -1.578980 0.072642 -0.372146 2.912542 3.490462 1.339611 2.432567 -2.099442 1.210971 0.000000 0.000000 0.000000 0.000000 0.000000 0.000000 -1.200301 0.322246 -0.089593 0.557935 1.285517 -0.367841 -3.215882 -1.694081 1.327202 8.489183 3.580908 -1.767269 0.000000 0.000000 0.000000 0.000000 0.000000 0.000000 -2.550469 -3.533432 55.752582 2.663463 1.223662 0.056516 7.390521 6.764896 1.059524 0.000000 0.000000 0.000000 6.340961 -18.603681 62.396406 29.712618 34.279833 -17.740767 -91.101975 -56.022196 -36.690560 0.000000 0.000000 0.000000
43.367474 77.054565 362.279990 1.431183 -0.553436 -56.996676 -0.167987 -0.185091 57.041620 0.123460 0.134220 0.061737 -0.877127 -0.650122 0.086765 0.000000 0.000000 0.000000 -1.307138 0.381369 -0.097084 -1.644826 0.067949 -0.390515 3.549362 3.817680 1.838415 1.874333 -2.609528 0.623652 0.000000 0.000000 0.000000 0.000000 0.000000 0.000000 -1.307138 0.381369 -0.097084 0.783274 1.710425 -0.498314 -4.119225 -2.667425 1.657548 9.583503 4.560404 -2.242253 0.000000 0.000000 0.000000 0.000000 0.000000 0.000000 -2.409706 -3.588050 56.728906 2.662663 1.376361 0.034692 7.168194 6.136543 0.955047 0.000000 0.000000 0.000000 7.515597 -19.855219 64.087842 33.763519 36.806973 -20.710228 -118.280094 -53.798963 -57.401073 0.000000 0.000000 0.000000
43.393057 77.468637 362.286060 1.343440 -0.566687 -58.046266 -0.019543 -0.048151 58.094273 0.054212 0.133027 0.061893 -1.068258 -0.554920 0.152684 0.000000 0.000000 0.000000 -1.345532 0.444976 -0.099517 -1.718442 0.102782 -0.396450 4.103071 5.702391 2.144961 0.370581 -5.280135 -0.461023 0.000000 0.000000 0.000000 0.000000 0.000000 0.000000 -1.345532 0.444976 -0.099517 1.133162 2.192226 -0.662988 -5.730165 -3.612772 2.196269 12.666882 6.554707 -3.329058 0.000000 0.000000 0.000000 0.000000 0.000000 0.000000 -2.299118 -3.442274 57.787897 2.564877 1.295626 0.037100 5.849670 3.887372 0.479512 0.000000 0.000000 0.000000 8.684758 -21.145848 65.905646 38.845884 39.002442 -24.241093 -141.006921 -44.093666 -75.303853 0.000000 0.000000 0.000000
43.130906 77.899258 362.177695 0.865659 -0.421061 -58.231821 0.266659 0.202475 58.271663 0.138350 0.037167 0.064403 -1.145171 -0.402906 0.175471 0.000000 0.000000 0.000000 -1.315627 0.506253 -0.097045 -2.196604 0.770496 -0.270707 4.646835 3.695277 2.209018 -0.256393 -3.822275 -0.794470 0.000000 0.000000 0.000000 0.000000 0.000000 0.000000 -1.315627 0.506253 -0.097045 1.533793 2.940713 -0.901461 -7.400730 -6.049490 2.687270 13.480072 9.030845 -4.384340 0.000000 0.000000 0.000000 0.000000 0.000000 0.000000 -1.558044 -2.590752 58.055857 2.155798 0.466735 0.146542 3.741384 2.196582 -0.201542 0.000000 0.000000 0.000000 9.030232 -20.325382 65.865311 38.397044 38.714575 -23.879097 -139.973869 -41.798338 -77.334128 0.000000 0.000000 0.000000
42.597268 78.266030 361.971978 0.057599 -0.141745 -57.338619 0.646652 0.498129 57.361217 0.328688 -0.101820 0.064365 -1.153889 0.520750 -0.085443 0.000000 0.000000 0.000000 -1.153889 0.520750 -0.085443 -1.774741 0.206065 -0.372962 5.129093 2.898034 3.151039 -3.522392 -2.898350 -2.940164 0.000000 0.000000 0.000000 0.000000 0.000000 0.000000 -1.153889 0.520750 -0.085443 1.763871 4.047651 -1.200979 -10.410715 -12.057436 3.327009 12.106372 12.990733 -5.687996 0.000000 0.000000 0.000000 0.000000 0.000000 0.000000 -0.225790 -1.320027 57.289415 1.175037 0.664998 0.041643 1.345449 -0.816906 -0.802259 0.000000 0.000000 0.000000 8.571764 -17.648467 63.874286 32.789416 35.951583 -19.885967 -117.003963 -47.928072 -65.278527 0.000000 0.000000 0.000000
42.001153 78.553407 361.770591 -0.785566 0.115671 -55.869465 0.536527 0.585356 55.867517 0.969641 -0.541037 0.081377 -0.968915 0.542337 -0.072213 0.000000 0.000000 0.000000 -1.743976 0.906185 0.192945 -0.395663 -0.132514 -0.473160 7.145297 3.630891 5.238482 -6.062753 -4.810085 -6.083575 0.000000 0.000000 0.000000 0.000000 0.000000 0.000000 -0.968915 0.542337 -0.072213 0.426947 4.555581 -1.084201 -6.809446 -15.430733 2.519689 8.173928 13.523677 -4.072466 0.000000 0.000000 0.000000 0.000000 0.000000 0.000000 0.536527 0.585356 55.867517 -0.000000 0.000000 0.000000 -1.344070 -4.396567 -1.756102 0.000000 0.000000 0.000000 7.218304 -13.147544 60.604899 23.259557 29.794037 -13.348197 -57.822163 -46.018180 -25.663885 0.000000 0.000000 0.000000
41.288789 78.835105 361.546793 -1.798073 0.410689 -53.919125 1.390954 1.211285 53.910866 -0.000000 0.000000 0.000000 -0.000000 0.000000 0.000000 0.000000 0.000000 0.000000 -0.931699 0.943116 0.425962 1.564982 -2.245714 -0.678515 8.633608 7.358134 7.799581 -12.066079 -8.438407 -11.590960 0.000000 0.000000 0.000000 0.000000 0.000000 0.000000 -0.000000 0.000000 0.000000 -0.407616 5.503496 -1.142395 -3.623380 -15.849273 2.093099 5.818081 9.223437 -2.083696 0.000000 0.000000 0.000000 0.000000 0.000000 0.000000 2.931458 1.748993 54.074663 -1.338757 0.931970 -0.192704 -4.243961 -7.585138 -2.666150 0.000000 0.000000 0.000000 7.034540 -9.514642 57.471438 16.883132 24.855033 -9.485907 -31.247912 -33.609038 -9.346259 0.000000 0.000000 0.000000
40.694238 78.986461 361.349926 -2.599873 0.656265 -52.086781 1.563571 1.037554 52.057724 0.820601 -0.059854 0.026886 -0.000000 0.000000 0.000000 0.000000 0.000000 0.000000 -0.877078 1.862337 0.621596 4.771712 -5.132049 -0.488165 13.092451 -1.578327 14.878829 -17.799609 3.004980 -17.274389 0.000000 0.000000 0.000000 0.000000 0.000000 0.000000 -0.000000 0.000000 0.000000 2.040293 3.980538 -1.232808 1.450336 -17.791819 0.453216 -0.382994 6.867815 2.624718 0.000000 0.000000 0.000000 0.000000 0.000000 0.000000 4.469317 2.934529 52.294689 -2.455687 1.075630 -0.294506 -11.605949 -14.561113 -5.256234 0.000000 0.000000 0.000000 7.392978 -6.145516 54.649479 10.803177 20.379007 -6.495254 -18.380898 -23.361105 -2.373919 0.000000 0.000000 0.000000
40.191993 79.034504 361.100042 -3.233959 0.921111 -50.084092 1.640526 0.960135 50.046236 1.445124 -0.277620 0.049861 -0.000000 0.000000 0.000000 0.000000 0.000000 0.000000 0.125404 3.094460 0.646253 7.942038 -8.362501 0.359810 11.491332 -4.153211 16.807832 -18.868324 6.449138 -19.024784 0.000000 0.000000 0.000000 0.000000 0.000000 0.000000 -0.000000 0.000000 0.000000 9.297932 1.533431 -1.758118 10.174008 -22.546030 -2.024818 -12.243630 11.647128 10.784106 0.000000 0.000000 0.000000 0.000000 0.000000 0.000000 6.025665 3.821127 50.336333 -3.905324 2.055884 -0.554722 -5.379262 -8.388183 -2.196946 0.000000 0.000000 0.000000 7.535901 -3.673339 51.879716 6.787298 16.035276 -4.396384 -12.044094 -16.242846 -0.006641 0.000000 0.000000 0.000000
39.931270 79.105281 360.979697 -3.539423 1.044714 -48.916125 1.469218 0.801841 48.871406 1.115963 -0.410011 -0.000514 0.854013 -0.051902 0.065429 0.000000 0.000000 0.000000 4.943344 2.259037 -0.423858 9.398622 -10.911838 2.137098 9.717582 -3.862018 19.228151 -19.003495 8.450685 -21.205012 0.000000 0.000000 0.000000 0.000000 0.000000 0.000000 0.046850 -2.166370 -0.661733 19.515674 1.804180 -2.508309 16.644093 -25.644865 -3.493655 -9.042672 14.833336 15.326976 0.000000 0.000000 0.000000 0.000000 0.000000 0.000000 6.696161 4.022437 49.180301 -4.240325 2.334465 -0.615879 -1.205891 -3.785653 -0.723562 0.000000 0.000000 0.000000 8.600323 -2.249692 50.341782 3.166032 15.087521 -3.563825 -8.196527 -13.384101 1.417066 0.000000 0.000000 0.000000
